<svg width="100" height="100" viewBox="0 0 100 100" fill="none" xmlns="http://www.w3.org/2000/svg">
<path d="M80.833 39.5837C79.0274 39.5837 77.4649 38.9275 76.1455 37.615C74.8261 36.3025 74.1663 34.7399 74.1663 32.9274C74.1663 31.1149 74.8261 29.5489 76.1455 28.2295C77.4649 26.9102 79.0274 26.2504 80.833 26.2504C82.6386 26.2504 84.2011 26.9102 85.5205 28.2295C86.8399 29.5489 87.4997 31.1149 87.4997 32.9274C87.4997 34.7399 86.8399 36.3025 85.5205 37.615C84.2011 38.9275 82.6386 39.5837 80.833 39.5837ZM19.1663 39.5837C17.3608 39.5837 15.7983 38.9275 14.4788 37.615C13.1594 36.3025 12.4997 34.7399 12.4997 32.9274C12.4997 31.1149 13.1594 29.5489 14.4788 28.2295C15.7983 26.9102 17.3608 26.2504 19.1663 26.2504C20.972 26.2504 22.5345 26.9102 23.8538 28.2295C25.1732 29.5489 25.833 31.1149 25.833 32.9274C25.833 34.7399 25.1732 36.3025 23.8538 37.615C22.5345 38.9275 20.972 39.5837 19.1663 39.5837ZM35.9372 33.3337C36.4928 30.7643 36.5795 28.6462 36.1976 26.9795C35.8157 25.3129 34.7566 23.3337 33.0205 21.042C30.9372 18.3337 29.583 15.7642 28.958 13.3337C28.333 10.9031 28.2982 7.81287 28.8538 4.06287H33.1247C32.708 7.67397 32.6907 10.3476 33.0726 12.0837C33.4545 13.8198 34.4788 15.799 36.1455 18.0212C38.1595 20.6601 39.4961 23.1947 40.1559 25.6254C40.8157 28.056 40.8841 30.6254 40.3611 33.3337H35.9372ZM48.4372 33.3337C48.9928 30.6947 49.0795 28.542 48.6976 26.8754C48.3157 25.2087 47.2566 23.2643 45.5205 21.042C43.4372 18.3337 42.083 15.7642 41.458 13.3337C40.833 10.9031 40.7982 7.81287 41.3538 4.06287H45.5205C44.9649 7.18787 44.9303 9.73995 45.4163 11.7191C45.9024 13.6983 47.0136 15.799 48.7497 18.0212C50.7636 20.5906 52.083 23.0906 52.708 25.5212C53.333 27.9518 53.3841 30.556 52.8611 33.3337H48.4372ZM60.9372 33.3337C61.4928 30.6947 61.5795 28.542 61.1976 26.8754C60.8157 25.2087 59.7566 23.2643 58.0205 21.042C55.9372 18.3337 54.583 15.7642 53.958 13.3337C53.333 10.9031 53.2982 7.81287 53.8538 4.06287H58.0205C57.5345 7.04897 57.5345 9.56632 58.0205 11.6149C58.5066 13.6636 59.583 15.799 61.2497 18.0212C63.2636 20.5906 64.583 23.0906 65.208 25.5212C65.833 27.9518 65.8841 30.556 65.3611 33.3337H60.9372ZM14.583 91.667C12.8643 91.667 11.3931 91.0549 10.1695 89.8306C8.94515 88.607 8.33301 87.1358 8.33301 85.417V54.167H12.4997V51.7452C12.4997 49.7431 13.2059 48.0316 14.6184 46.6108C16.0309 45.1899 17.7552 44.4795 19.7913 44.4795C20.8774 44.4795 21.9128 44.6879 22.8976 45.1045C23.8824 45.5212 24.7565 46.1114 25.5205 46.8754L29.9997 51.9795C30.347 52.3962 30.7288 52.7781 31.1455 53.1254C31.5622 53.4727 32.0272 53.8197 32.5403 54.167H67.4997C67.9857 53.8197 68.4372 53.4727 68.8538 53.1254C69.2705 52.7781 69.6524 52.3962 69.9997 51.9795L74.4788 46.8754C75.2428 46.1114 76.117 45.5212 77.1018 45.1045C78.0866 44.6879 79.122 44.4795 80.208 44.4795C82.2441 44.4795 83.9684 45.1899 85.3809 46.6108C86.7934 48.0316 87.4997 49.7431 87.4997 51.7452V54.167H91.6664V85.417C91.6664 87.1358 91.0545 88.607 89.8309 89.8306C88.6066 91.0549 87.1351 91.667 85.4163 91.667H14.583ZM14.583 71.8754H85.4163V60.417H14.583V71.8754ZM14.583 85.417H85.4163V78.1254H14.583V85.417Z" fill="#BCC8A5"/>
</svg>
