<svg width="100" height="100" viewBox="0 0 100 100" fill="none" xmlns="http://www.w3.org/2000/svg">
<path d="M95.8337 79.1667C95.8337 81.3768 94.9557 83.4964 93.3929 85.0592C91.8301 86.622 89.7105 87.5 87.5003 87.5H12.5003C10.2902 87.5 8.17057 86.622 6.60777 85.0592C5.04497 83.4964 4.16699 81.3768 4.16699 79.1667V33.3333C4.16699 31.1232 5.04497 29.0036 6.60777 27.4408C8.17057 25.878 10.2902 25 12.5003 25H29.167L37.5003 12.5H62.5003L70.8337 25H87.5003C89.7105 25 91.8301 25.878 93.3929 27.4408C94.9557 29.0036 95.8337 31.1232 95.8337 33.3333V79.1667Z" stroke="#BCC8A5" stroke-width="5" stroke-linecap="round" stroke-linejoin="round"/>
<path d="M49.9997 70.8333C59.2044 70.8333 66.6663 63.3714 66.6663 54.1667C66.6663 44.9619 59.2044 37.5 49.9997 37.5C40.7949 37.5 33.333 44.9619 33.333 54.1667C33.333 63.3714 40.7949 70.8333 49.9997 70.8333Z" stroke="#BCC8A5" stroke-width="5" stroke-linecap="round" stroke-linejoin="round"/>
</svg>
