<svg width="30" height="30" viewBox="0 0 30 30" fill="none" xmlns="http://www.w3.org/2000/svg">
<path d="M20 15H23.3333C23.3333 12.7899 22.4554 10.6702 20.8926 9.10744C19.3298 7.54464 17.2101 6.66667 15 6.66667V10C16.3261 10 17.5979 10.5268 18.5355 11.4645C19.4732 12.4021 20 13.6739 20 15ZM26.6667 15H30C30 6.66667 23.2833 0 15 0V3.33333C21.4333 3.33333 26.6667 8.55 26.6667 15ZM28.3333 20.8333C26.25 20.8333 24.25 20.5 22.3833 19.8833C21.8 19.7 21.15 19.8333 20.6833 20.3L17.0167 23.9667C12.3 21.5667 8.43333 17.7 6.03333 12.9833L9.7 9.31667C10.1667 8.85 10.3 8.2 10.1167 7.61667C9.5 5.75 9.16667 3.75 9.16667 1.66667C9.16667 1.22464 8.99107 0.800716 8.67851 0.488155C8.36595 0.175595 7.94203 0 7.5 0H1.66667C1.22464 0 0.800716 0.175595 0.488155 0.488155C0.175595 0.800716 0 1.22464 0 1.66667C0 9.18113 2.98511 16.3878 8.29864 21.7014C13.6122 27.0149 20.8189 30 28.3333 30C28.7754 30 29.1993 29.8244 29.5118 29.5118C29.8244 29.1993 30 28.7754 30 28.3333V22.5C30 22.058 29.8244 21.634 29.5118 21.3215C29.1993 21.0089 28.7754 20.8333 28.3333 20.8333Z" fill="black"/>
</svg>
