<svg width="100" height="100" viewBox="0 0 100 100" fill="none" xmlns="http://www.w3.org/2000/svg">
<path d="M49.9259 2.10935C49.5062 2.12383 49.1017 2.27006 48.7697 2.52732L2.76969 38.4218C2.35115 38.7482 2.07939 39.2274 2.01419 39.7541C1.94899 40.2809 2.0957 40.8119 2.42204 41.2304C2.74838 41.649 3.22762 41.9207 3.75433 41.9859C4.28105 42.0511 4.81209 41.9044 5.23063 41.5781L8.00016 39.4179V92C8.00022 92.5304 8.21095 93.0391 8.58601 93.4141C8.96107 93.7892 9.46975 93.9999 10.0002 94H37.6642C37.8802 94.0357 38.1006 94.0357 38.3166 94H61.6642C61.8802 94.0357 62.1006 94.0357 62.3166 94H90.0002C90.5306 93.9999 91.0393 93.7892 91.4143 93.4141C91.7894 93.0391 92.0001 92.5304 92.0002 92V39.4179L94.7697 41.5781C94.9769 41.7397 95.214 41.8589 95.4673 41.9289C95.7206 41.9989 95.9852 42.0183 96.246 41.986C96.5069 41.9538 96.7588 41.8704 96.9874 41.7408C97.216 41.6112 97.4168 41.4378 97.5784 41.2305C97.74 41.0233 97.8592 40.7862 97.9292 40.5329C97.9991 40.2796 98.0185 40.015 97.9862 39.7542C97.9539 39.4933 97.8706 39.2415 97.741 39.0129C97.6113 38.7843 97.4379 38.5834 97.2306 38.4218L82.0002 26.539V12H70.0002V17.1719L51.2306 2.52732C50.8585 2.23876 50.3965 2.09075 49.9259 2.10935ZM50.0002 6.64451L88.0002 36.2968V90H64.0002V52H36.0002V90H12.0002V36.2968L50.0002 6.64451ZM74.0002 16H78.0002V23.4179L74.0002 20.2929V16ZM40.0002 56H60.0002V90H40.0002V56Z" fill="#BCC8A5"/>
</svg>
