<svg width="90" height="90" viewBox="0 0 90 90" fill="none" xmlns="http://www.w3.org/2000/svg">
<path d="M90 45C90 69.8528 69.8528 90 45 90C20.1472 90 0 69.8528 0 45C0 20.1472 20.1472 0 45 0C69.8528 0 90 20.1472 90 45Z" fill="#F9B246"/>
<path d="M60.5455 45C60.5455 53.5855 53.5855 60.5455 45 60.5455C36.4145 60.5455 29.4545 53.5855 29.4545 45C29.4545 36.4145 36.4145 29.4545 45 29.4545C53.5855 29.4545 60.5455 36.4145 60.5455 45Z" fill="#F8EB44"/>
<path d="M89.9704 46.6364C89.1092 70.7312 69.305 90 45 90C20.695 90 0.89081 70.7312 0.0295632 46.6364H89.9704Z" fill="#88CBC2"/>
<path d="M80.5717 72.5633C80.5695 72.5662 80.5676 72.5692 80.5653 72.5721C80.5367 72.609 80.5078 72.6456 80.479 72.6824C80.4033 72.7794 80.3271 72.876 80.2505 72.9724C80.2186 73.0126 80.1867 73.0529 80.1546 73.093C79.9629 73.3327 79.7687 73.5702 79.5722 73.8058C79.5418 73.8422 79.5116 73.8789 79.4811 73.9152C79.4011 74.0105 79.3205 74.1051 79.2398 74.1997C79.1936 74.2538 79.1472 74.3079 79.1008 74.3619C79.0453 74.4262 78.9896 74.4904 78.9338 74.5544C78.874 74.623 78.8142 74.6916 78.754 74.7598C78.6902 74.832 78.6257 74.9036 78.5614 74.9755C78.5068 75.0367 78.4518 75.0976 78.3968 75.1585C78.3233 75.2399 78.2497 75.3213 78.1755 75.4022C78.1446 75.4359 78.1139 75.47 78.0828 75.5036C77.9994 75.5941 77.9153 75.6839 77.8311 75.7737C77.7658 75.8434 77.7004 75.913 77.6346 75.9822C77.594 76.025 77.5531 76.0675 77.5123 76.1101C77.4425 76.183 77.3725 76.2557 77.3022 76.3282C77.2404 76.3919 77.179 76.4559 77.1168 76.5192C77.0434 76.594 76.9695 76.6685 76.8955 76.7429C76.8448 76.7939 76.7939 76.8448 76.7429 76.8955C76.6895 76.9487 76.6352 77.0008 76.5815 77.0537C76.3837 77.2486 76.1844 77.4418 75.983 77.633C75.9194 77.6935 75.8561 77.7543 75.7921 77.8144C75.7143 77.8874 75.6363 77.96 75.558 78.0325C75.5075 78.0792 75.4569 78.1258 75.4062 78.1723C75.3232 78.2484 75.2396 78.3238 75.1561 78.3992C75.12 78.4319 75.0836 78.4642 75.0474 78.4967C74.9594 78.5757 74.8716 78.6549 74.7829 78.7332C74.7118 78.7961 74.6403 78.8586 74.5688 78.921C74.508 78.974 74.4469 79.0265 74.3858 79.0792C74.3299 79.1274 74.2742 79.1758 74.218 79.2238C74.1339 79.2957 74.0495 79.3674 73.9648 79.4387C73.9073 79.4871 73.8498 79.5353 73.7922 79.5834C73.7125 79.6497 73.6326 79.7157 73.5525 79.7815C73.5142 79.813 73.4758 79.8444 73.4374 79.8758C73.3352 79.9593 73.2328 80.0425 73.1298 80.1251C73.0913 80.1559 73.0525 80.1863 73.0139 80.217C72.6444 80.5114 72.2703 80.8002 71.8913 81.0831C71.8117 81.1426 71.7317 81.2015 71.6516 81.2605C71.5872 81.3079 71.523 81.3556 71.4583 81.4027C71.3756 81.4629 71.2928 81.5229 71.2098 81.5825C71.1473 81.6273 71.0848 81.6722 71.022 81.7167C70.9657 81.7567 70.9091 81.7961 70.8526 81.8358C70.7562 81.9035 70.6595 81.9709 70.5626 82.0379C70.3493 82.1854 70.1346 82.3311 69.9186 82.475C69.1759 82.9698 68.4176 83.443 67.6446 83.894C67.5624 83.942 67.4803 83.9903 67.3977 84.0378C67.1776 84.1644 66.9562 84.2888 66.7337 84.4118C66.639 84.4641 66.5444 84.5167 66.4493 84.5684C66.0658 84.7767 65.6785 84.979 65.2884 85.1764C65.2013 85.2204 65.1144 85.2648 65.0271 85.3082C64.7774 85.4325 64.5259 85.5536 64.2736 85.6734C64.2052 85.7059 64.1369 85.7387 64.0683 85.7709C63.9676 85.818 63.8665 85.8643 63.7654 85.9107C63.7124 85.9351 63.6596 85.96 63.6064 85.9842C63.4968 86.0341 63.3866 86.083 63.2765 86.132C63.2131 86.1602 63.1498 86.1888 63.0863 86.2167C63.0079 86.2512 62.9292 86.285 62.8506 86.319C62.757 86.3595 62.6633 86.3998 62.5693 86.4396C62.505 86.467 62.4405 86.4941 62.376 86.5211C62.2828 86.5602 62.1898 86.5994 62.0963 86.6378C61.9924 86.6805 61.8882 86.7229 61.7839 86.7648C61.714 86.793 61.6439 86.8209 61.5738 86.8487C61.5126 86.873 61.4513 86.8967 61.39 86.9206C61.2796 86.9638 61.1692 87.0069 61.0584 87.0493C60.9847 87.0774 60.911 87.1054 60.8371 87.1332C60.7503 87.1658 60.6636 87.1985 60.5766 87.2306C60.4598 87.2738 60.3424 87.3155 60.2251 87.3577C60.1867 87.3715 60.1484 87.3855 60.11 87.3992C60.0039 87.4371 59.8977 87.4748 59.7912 87.5119C59.7019 87.543 59.6123 87.5733 59.5227 87.6038C59.4422 87.6312 59.3614 87.6583 59.2806 87.6853C59.1907 87.7153 59.1007 87.7453 59.0106 87.7748C58.9398 87.7979 58.8689 87.8207 58.798 87.8435C58.694 87.877 58.59 87.9106 58.4856 87.9434C58.4045 87.9688 58.3233 87.9943 58.2419 88.0193C58.1587 88.0449 58.0753 88.07 57.9918 88.0952C57.8974 88.1236 57.8029 88.152 57.7082 88.1799C57.5955 88.213 57.4825 88.2451 57.3694 88.2773C57.3419 88.2852 57.3146 88.2935 57.2871 88.3013C57.1449 88.3416 57.0024 88.3807 56.8596 88.4196C56.7918 88.4381 56.7239 88.4565 56.6559 88.4747C56.579 88.4953 56.502 88.5153 56.425 88.5354C56.33 88.5603 56.235 88.5855 56.1397 88.6097C56.0204 88.6401 55.9007 88.6698 55.781 88.6992C55.7355 88.7104 55.6899 88.7217 55.6444 88.7328C55.5244 88.7619 55.4043 88.7902 55.284 88.8183C55.2177 88.8338 55.1514 88.8494 55.085 88.8646C54.9691 88.8912 54.853 88.9173 54.7367 88.9429C54.663 88.9592 54.5892 88.975 54.5154 88.9909C54.4286 89.0095 54.3418 89.0278 54.2549 89.046C54.162 89.0654 54.0691 89.0847 53.976 89.1035C53.8566 89.1277 53.737 89.1514 53.6173 89.1746C53.5714 89.1835 53.5257 89.193 53.4798 89.2018C53.3451 89.2275 53.2099 89.2516 53.0748 89.2761C53.0132 89.2872 52.9518 89.2988 52.8902 89.3097C52.7923 89.327 52.6942 89.3433 52.5961 89.36C52.5126 89.3742 52.429 89.3886 52.3453 89.4023C52.2306 89.4212 52.1158 89.4395 52.0009 89.4575C51.9285 89.4688 51.8561 89.4801 51.7836 89.491C51.704 89.5031 51.6243 89.5146 51.5447 89.5262C51.4233 89.5439 51.3019 89.5614 51.1803 89.5781C51.1478 89.5826 51.1153 89.5873 51.0828 89.5917C50.9331 89.6119 50.7832 89.6313 50.633 89.65C50.5723 89.6576 50.5116 89.6651 50.4508 89.6724C50.342 89.6855 50.2331 89.6984 50.124 89.7108C49.9692 89.7283 49.8142 89.7451 49.659 89.7611C49.6353 89.7635 49.6116 89.7659 49.5879 89.7683C49.4352 89.7837 49.2824 89.7983 49.1293 89.8122C49.0901 89.8158 49.051 89.82 49.0118 89.8234C48.8887 89.8343 48.7653 89.8439 48.6419 89.8538C48.5679 89.8597 48.4938 89.8658 48.4197 89.8714C48.3234 89.8786 48.227 89.8847 48.1305 89.8913C48.0408 89.8975 47.9511 89.9049 47.8612 89.9105C47.7644 89.9166 47.6674 89.921 47.5704 89.9265C47.4735 89.9319 47.3766 89.9376 47.2796 89.9425C47.246 89.9441 47.2125 89.9457 47.1789 89.9473C46.7484 89.9678 46.3164 89.9821 45.8829 89.9904C45.5893 89.9961 45.295 90 45 90C44.7048 90 44.4102 89.9961 44.1163 89.9904C43.6828 89.9821 43.2508 89.9678 42.8203 89.9473C42.7867 89.9457 42.7532 89.9441 42.7196 89.9425C42.6226 89.9376 42.5257 89.9319 42.4288 89.9265C42.3318 89.921 42.2348 89.9166 42.138 89.9105C42.0481 89.9049 41.9584 89.8975 41.8687 89.8913C41.7722 89.8847 41.6758 89.8786 41.5795 89.8714C41.5054 89.8658 41.4313 89.8597 41.3573 89.8538C41.2339 89.8439 41.1105 89.8343 40.9874 89.8234C40.9482 89.82 40.9091 89.8158 40.8699 89.8122C40.7168 89.7983 40.564 89.7837 40.4113 89.7683C40.3876 89.7659 40.3639 89.7635 40.3402 89.7611C40.185 89.7451 40.03 89.7283 39.8752 89.7108C39.7661 89.6984 39.6572 89.6855 39.5484 89.6724C39.4876 89.6651 39.4269 89.6576 39.3662 89.65C39.216 89.6313 39.0661 89.6119 38.9164 89.5917C38.8839 89.5873 38.8514 89.5826 38.8189 89.5781C38.6973 89.5614 38.5759 89.5439 38.4545 89.5262C38.3749 89.5146 38.2952 89.5031 38.2156 89.491C38.1431 89.4801 38.0707 89.4688 37.9983 89.4575C37.8834 89.4395 37.7686 89.4212 37.6539 89.4023C37.5702 89.3886 37.4866 89.3742 37.4031 89.36C37.305 89.3433 37.2069 89.327 37.109 89.3097C37.0474 89.2988 36.986 89.2872 36.9244 89.2761C36.7893 89.2516 36.6541 89.2275 36.5194 89.2018C36.4735 89.193 36.4278 89.1835 36.3819 89.1746C36.2622 89.1514 36.1426 89.1277 36.0232 89.1035C35.9301 89.0847 35.8372 89.0654 35.7443 89.046C35.6574 89.0278 35.5706 89.0095 35.4838 88.9909C35.41 88.975 35.3362 88.9592 35.2625 88.9429C35.1462 88.9173 35.0301 88.8912 34.9142 88.8646C34.8478 88.8494 34.7815 88.8338 34.7152 88.8183C34.5949 88.7901 34.4748 88.7619 34.3548 88.7328C34.3093 88.7217 34.2637 88.7104 34.2182 88.6992C34.0987 88.6698 33.9794 88.6401 33.8603 88.6097C33.7648 88.5854 33.6695 88.5604 33.5742 88.5354C33.4972 88.5153 33.4202 88.4953 33.3433 88.4747C33.2753 88.4565 33.2074 88.4381 33.1396 88.4196C32.9968 88.3807 32.8543 88.3416 32.7121 88.3013C32.6846 88.2935 32.6573 88.2852 32.6298 88.2773C32.5167 88.2451 32.4037 88.213 32.291 88.1799C32.1963 88.152 32.1018 88.1236 32.0074 88.0952C31.9239 88.07 31.8405 88.0449 31.7573 88.0193C31.6759 87.9942 31.5947 87.9688 31.5136 87.9434C31.4092 87.9106 31.3052 87.877 31.2012 87.8435C31.1303 87.8207 31.0594 87.7979 30.9886 87.7748C30.8985 87.7453 30.8085 87.7153 30.7186 87.6853C30.6378 87.6583 30.557 87.6312 30.4765 87.6038C30.3869 87.5733 30.2973 87.543 30.208 87.5119C30.1015 87.4748 29.9953 87.4371 29.8892 87.3992C29.8508 87.3855 29.8125 87.3715 29.7741 87.3577C29.6568 87.3155 29.5394 87.2738 29.4226 87.2306C29.3356 87.1985 29.2489 87.1658 29.1621 87.1332C29.0882 87.1054 29.0145 87.0774 28.9408 87.0493C28.83 87.0069 28.7196 86.9638 28.6092 86.9206C28.5479 86.8967 28.4866 86.873 28.4254 86.8487C28.3553 86.8209 28.2852 86.793 28.2153 86.7648C28.111 86.7229 28.0068 86.6805 27.9029 86.6378C27.8094 86.5994 27.7164 86.5602 27.6232 86.5211C27.5587 86.4941 27.4942 86.467 27.4299 86.4396C27.3359 86.3998 27.2422 86.3595 27.1486 86.319C27.07 86.285 26.9913 86.2512 26.9129 86.2167C26.8494 86.1888 26.7861 86.1602 26.7227 86.132C26.6126 86.083 26.5024 86.0341 26.3928 85.9842C26.3396 85.96 26.2868 85.9351 26.2338 85.9107C26.1327 85.8643 26.0316 85.818 25.9309 85.7709C25.8623 85.7387 25.794 85.7059 25.7256 85.6734C25.4733 85.5536 25.2218 85.4325 24.9721 85.3082C24.8848 85.2648 24.7979 85.2204 24.7108 85.1764C24.3209 84.9791 23.934 84.7766 23.5507 84.5684C23.4554 84.5166 23.3604 84.4642 23.2654 84.4118C23.043 84.2888 22.8216 84.1644 22.6015 84.0378C22.5189 83.9903 22.4368 83.942 22.3546 83.894C21.5817 83.443 20.8233 82.9698 20.0806 82.475C19.8646 82.3311 19.6499 82.1854 19.4366 82.0379C19.3397 81.9709 19.243 81.9035 19.1466 81.8358C19.0901 81.7961 19.0335 81.7567 18.9772 81.7167C18.9146 81.6723 18.8525 81.6272 18.7902 81.5825C18.707 81.5227 18.6237 81.463 18.5409 81.4027C18.4762 81.3556 18.412 81.3079 18.3476 81.2605C18.2675 81.2015 18.1875 81.1426 18.1079 81.0831C17.729 80.8002 17.3548 80.5114 16.9853 80.217C16.9467 80.1863 16.9079 80.1559 16.8694 80.1251C16.7664 80.0425 16.664 79.9593 16.5618 79.8758C16.5234 79.8444 16.485 79.813 16.4467 79.7815C16.3666 79.7157 16.2867 79.6497 16.207 79.5834C16.1494 79.5353 16.0919 79.4871 16.0344 79.4387C15.9497 79.3674 15.8653 79.2957 15.7812 79.2238C15.725 79.1758 15.6693 79.1274 15.6134 79.0792C15.5523 79.0265 15.4912 78.974 15.4304 78.921C15.3589 78.8586 15.2874 78.7961 15.2163 78.7332C15.1276 78.6549 15.0398 78.5757 14.9518 78.4967C14.9156 78.4642 14.8792 78.4319 14.8431 78.3992C14.7596 78.3238 14.676 78.2484 14.593 78.1723C14.5423 78.1258 14.4917 78.0792 14.4412 78.0325C14.3629 77.96 14.2849 77.8874 14.2071 77.8144C14.1431 77.7543 14.0798 77.6935 14.0162 77.633C13.8148 77.4418 13.6155 77.2486 13.4177 77.0537C13.3642 77.001 13.3104 76.9485 13.2571 76.8955C13.2061 76.8448 13.1552 76.7939 13.1045 76.7429C13.0304 76.6684 12.956 76.5942 12.8824 76.5192C12.8202 76.4559 12.7588 76.3919 12.697 76.3282C12.6267 76.2557 12.5567 76.183 12.4869 76.1101C12.4461 76.0675 12.4052 76.025 12.3646 75.9822C12.2988 75.913 12.2334 75.8434 12.1681 75.7737C12.0839 75.6839 11.9998 75.5941 11.9164 75.5036C11.8853 75.47 11.8546 75.4359 11.8237 75.4022C11.7495 75.3213 11.6759 75.2399 11.6024 75.1585C11.5474 75.0976 11.4924 75.0367 11.4378 74.9755C11.3735 74.9036 11.309 74.832 11.2452 74.7598C11.185 74.6916 11.1252 74.623 11.0654 74.5544C11.0096 74.4904 10.9539 74.4262 10.8984 74.3619C10.852 74.3079 10.8056 74.2538 10.7594 74.1997C10.6787 74.1051 10.5981 74.0105 10.5181 73.9152C10.4876 73.8789 10.4574 73.8422 10.427 73.8058C10.2305 73.5702 10.0363 73.3327 9.84455 73.093C9.81246 73.0529 9.78063 73.0126 9.74867 72.9724C9.6721 72.876 9.59594 72.7794 9.52015 72.6824C9.49142 72.6456 9.46248 72.609 9.43386 72.5721C9.3556 72.4713 9.27797 72.37 9.20055 72.2685C9.15581 72.2098 9.11158 72.1508 9.06712 72.0919C9.00613 72.0111 8.9454 71.9302 8.88494 71.849C8.84594 71.7966 8.80707 71.7441 8.76829 71.6916C8.70121 71.6007 8.63415 71.5098 8.56774 71.4183C8.51943 71.3518 8.47107 71.2853 8.42312 71.2186C8.37122 71.1463 8.31959 71.0738 8.26811 71.0012C8.21712 70.9293 8.16687 70.8569 8.1163 70.7847C8.06112 70.7059 8.00559 70.6274 7.95091 70.5482C7.89632 70.4692 7.84279 70.3895 7.78871 70.3101C7.74694 70.2488 7.70473 70.1878 7.66326 70.1263C7.6211 70.0638 7.57887 70.0013 7.53702 69.9386C6.37847 68.2016 5.33771 66.3795 4.42569 64.4837C4.27958 64.18 4.13607 63.8748 3.99663 63.5673C3.95256 63.4701 3.90978 63.3724 3.86639 63.2749C3.76173 63.0396 3.6587 62.8035 3.55797 62.5661C3.02262 61.3047 2.54338 60.0138 2.12296 58.6966C2.10171 58.63 2.07999 58.5635 2.05904 58.4968C2.02115 58.3761 1.98407 58.2552 1.94718 58.1341C1.93355 58.0893 1.91992 58.0446 1.90643 57.9998C1.82087 57.7158 1.7388 57.4304 1.65874 57.1441C1.63656 57.0648 1.61417 56.9855 1.59242 56.906C1.56259 56.797 1.53356 56.6877 1.50453 56.5784C1.48989 56.5233 1.47501 56.4682 1.46058 56.413C1.38546 56.1256 1.3128 55.8372 1.24325 55.5477C1.22531 55.4729 1.20809 55.398 1.19052 55.3232C1.12026 55.0238 1.05262 54.7235 0.98837 54.4219C0.977772 54.3721 0.967642 54.3223 0.957209 54.2725C0.942981 54.2045 0.927984 54.1367 0.914062 54.0687L0.862926 53.813C0.855156 53.7739 0.847424 53.7347 0.839755 53.6956C0.820536 53.5974 0.801605 53.4991 0.783026 53.4007C0.775031 53.3584 0.766931 53.3161 0.759055 53.2737L0.703125 52.9661C0.661276 52.7318 0.621482 52.4969 0.583274 52.2614C0.573125 52.1988 0.562803 52.1362 0.552912 52.0736C0.27758 50.3297 0.102486 48.5526 0.0335582 46.7482L80.5717 72.5633Z" fill="#34B8BA"/>
<path d="M63.8318 85.8795L63.6328 85.973C63.6241 85.977 63.6151 85.9802 63.6064 85.9842C63.4968 86.0341 63.3866 86.083 63.2765 86.132C63.2131 86.1602 63.1498 86.1888 63.0863 86.2167C63.0079 86.2512 62.9292 86.285 62.8506 86.319C62.757 86.3595 62.6633 86.3998 62.5693 86.4396C62.505 86.467 62.4405 86.4941 62.376 86.5211C62.2828 86.5602 62.1898 86.5994 62.0963 86.6378C61.9924 86.6805 61.8882 86.7229 61.7839 86.7648C61.714 86.793 61.6439 86.8209 61.5738 86.8487C61.5126 86.873 61.4513 86.8967 61.39 86.9206C61.2796 86.9638 61.1692 87.0069 61.0584 87.0493C60.9847 87.0774 60.911 87.1054 60.8371 87.1332C60.7503 87.1658 60.6636 87.1985 60.5766 87.2306C60.4598 87.2738 60.3424 87.3155 60.2251 87.3577C60.1867 87.3715 60.1484 87.3855 60.11 87.3992C60.0039 87.4371 59.8977 87.4748 59.7912 87.5119C59.7019 87.543 59.6123 87.5733 59.5227 87.6038C59.4422 87.6312 59.3614 87.6583 59.2806 87.6853C59.1907 87.7153 59.1007 87.7453 59.0106 87.7748C58.9398 87.7979 58.8689 87.8207 58.798 87.8435C58.694 87.877 58.59 87.9106 58.4856 87.9434C58.4045 87.9688 58.3233 87.9943 58.2419 88.0193C58.1587 88.0449 58.0753 88.07 57.9918 88.0952C57.8974 88.1236 57.8029 88.152 57.7082 88.1799C57.5955 88.213 57.4825 88.2451 57.3694 88.2773C57.3419 88.2852 57.3146 88.2935 57.2871 88.3013C57.1449 88.3416 57.0024 88.3807 56.8596 88.4196C56.7918 88.4381 56.7239 88.4565 56.6559 88.4747C56.579 88.4953 56.502 88.5153 56.425 88.5354C56.33 88.5603 56.235 88.5855 56.1397 88.6097C56.0204 88.6401 55.9007 88.6698 55.781 88.6992C55.7355 88.7104 55.6899 88.7217 55.6444 88.7328C55.5244 88.7619 55.4043 88.7902 55.284 88.8183C55.2177 88.8338 55.1514 88.8494 55.085 88.8646C54.9691 88.8912 54.853 88.9173 54.7367 88.9429C54.663 88.9592 54.5892 88.975 54.5154 88.9909C54.4286 89.0095 54.3418 89.0278 54.2549 89.046C54.162 89.0654 54.0691 89.0847 53.976 89.1035C53.8566 89.1277 53.737 89.1514 53.6173 89.1746C53.5714 89.1835 53.5257 89.193 53.4798 89.2018C53.3451 89.2275 53.2099 89.2516 53.0748 89.2761C53.0132 89.2872 52.9518 89.2988 52.8902 89.3097C52.7923 89.327 52.6942 89.3433 52.5961 89.36C52.5126 89.3742 52.429 89.3886 52.3453 89.4023C52.2306 89.4212 52.1158 89.4395 52.0009 89.4575C51.9285 89.4688 51.8561 89.4801 51.7836 89.491C51.704 89.5031 51.6243 89.5146 51.5447 89.5262C51.4233 89.5439 51.3019 89.5614 51.1803 89.5781C51.1478 89.5826 51.1153 89.5873 51.0828 89.5917C50.9331 89.6119 50.7832 89.6313 50.633 89.65C50.5723 89.6576 50.5116 89.6651 50.4508 89.6724C50.342 89.6855 50.2331 89.6984 50.124 89.7108C49.9692 89.7283 49.8142 89.7451 49.659 89.7611C49.6353 89.7635 49.6116 89.7659 49.5879 89.7683C49.4352 89.7837 49.2824 89.7983 49.1293 89.8122C49.0901 89.8158 49.051 89.82 49.0118 89.8234C48.8887 89.8343 48.7653 89.8439 48.6419 89.8538C48.5679 89.8597 48.4938 89.8658 48.4197 89.8714C48.3234 89.8786 48.227 89.8847 48.1305 89.8913C48.0408 89.8975 47.9511 89.9049 47.8612 89.9105C47.7644 89.9166 47.6674 89.921 47.5704 89.9265C47.4735 89.9319 47.3766 89.9376 47.2796 89.9425C47.246 89.9441 47.2125 89.9457 47.1789 89.9473C46.7484 89.9678 46.3164 89.9821 45.8829 89.9904C45.5893 89.9961 45.295 90 45 90C44.7048 90 44.4102 89.9961 44.1163 89.9904C43.6828 89.9821 43.2508 89.9678 42.8203 89.9473C42.7867 89.9457 42.7532 89.9441 42.7196 89.9425C42.6226 89.9376 42.5257 89.9319 42.4288 89.9265C42.3318 89.921 42.2348 89.9166 42.138 89.9105C42.0481 89.9049 41.9584 89.8975 41.8687 89.8913C41.7722 89.8847 41.6758 89.8786 41.5795 89.8714C41.5054 89.8658 41.4313 89.8597 41.3573 89.8538C41.2339 89.8439 41.1105 89.8343 40.9874 89.8234C40.9482 89.82 40.9091 89.8158 40.8699 89.8122C40.7168 89.7983 40.564 89.7837 40.4113 89.7683C40.3876 89.7659 40.3639 89.7635 40.3402 89.7611C40.185 89.7451 40.03 89.7283 39.8752 89.7108C39.7661 89.6984 39.6572 89.6855 39.5484 89.6724C39.4876 89.6651 39.4269 89.6576 39.3662 89.65C39.216 89.6313 39.0661 89.6119 38.9164 89.5917C38.8839 89.5873 38.8514 89.5826 38.8189 89.5781C38.6973 89.5614 38.5759 89.5439 38.4545 89.5262C38.3749 89.5146 38.2952 89.5031 38.2156 89.491C38.1431 89.4801 38.0707 89.4688 37.9983 89.4575C37.8834 89.4395 37.7686 89.4212 37.6539 89.4023C37.5702 89.3886 37.4866 89.3742 37.4031 89.36C37.305 89.3433 37.2069 89.327 37.109 89.3097C37.0474 89.2988 36.986 89.2872 36.9244 89.2761C36.7893 89.2516 36.6541 89.2275 36.5194 89.2018C36.4735 89.193 36.4278 89.1835 36.3819 89.1746C36.2622 89.1514 36.1426 89.1277 36.0232 89.1035C35.9301 89.0847 35.8372 89.0654 35.7443 89.046C35.6574 89.0278 35.5706 89.0095 35.4838 88.9909C35.41 88.975 35.3362 88.9592 35.2625 88.9429C35.1462 88.9173 35.0301 88.8912 34.9142 88.8646C34.8478 88.8494 34.7815 88.8338 34.7152 88.8183C34.5949 88.7901 34.4748 88.7619 34.3548 88.7328C34.3093 88.7217 34.2637 88.7104 34.2182 88.6992C34.0987 88.6698 33.9794 88.6401 33.8603 88.6097C33.7648 88.5854 33.6695 88.5604 33.5742 88.5354C33.4972 88.5153 33.4202 88.4953 33.3433 88.4747C33.2753 88.4565 33.2074 88.4381 33.1396 88.4196C32.9968 88.3807 32.8543 88.3416 32.7121 88.3013C32.6846 88.2935 32.6573 88.2852 32.6298 88.2773C32.5167 88.2451 32.4037 88.213 32.291 88.1799C32.1963 88.152 32.1018 88.1236 32.0074 88.0952C31.9239 88.07 31.8405 88.0449 31.7573 88.0193C31.6759 87.9942 31.5947 87.9688 31.5136 87.9434C31.4092 87.9106 31.3052 87.877 31.2012 87.8435C31.1303 87.8207 31.0594 87.7979 30.9886 87.7748C30.8985 87.7453 30.8085 87.7153 30.7186 87.6853C30.6378 87.6583 30.557 87.6312 30.4765 87.6038C30.3869 87.5733 30.2973 87.543 30.208 87.5119C30.1015 87.4748 29.9953 87.4371 29.8892 87.3992C29.8508 87.3855 29.8125 87.3715 29.7741 87.3577C29.6568 87.3155 29.5394 87.2738 29.4226 87.2306C29.3356 87.1985 29.2489 87.1658 29.1621 87.1332C29.0882 87.1054 29.0145 87.0774 28.9408 87.0493C28.83 87.0069 28.7196 86.9638 28.6092 86.9206C28.5479 86.8967 28.4866 86.873 28.4254 86.8487C28.3553 86.8209 28.2852 86.793 28.2153 86.7648C28.111 86.7229 28.0068 86.6805 27.9029 86.6378C27.8094 86.5994 27.7164 86.5602 27.6232 86.5211C27.5587 86.4941 27.4942 86.467 27.4299 86.4396C27.3359 86.3998 27.2422 86.3595 27.1486 86.319C27.07 86.285 26.9913 86.2512 26.9129 86.2167C26.8494 86.1888 26.7861 86.1602 26.7227 86.132C26.6126 86.083 26.5024 86.0341 26.3928 85.9842C26.3396 85.96 26.2868 85.9351 26.2338 85.9107C26.1327 85.8643 26.0316 85.818 25.9309 85.7709C25.8623 85.7387 25.794 85.7059 25.7256 85.6734C25.4733 85.5536 25.2218 85.4325 24.9721 85.3082C24.8848 85.2648 24.7979 85.2204 24.7108 85.1764C24.3209 84.9791 23.934 84.7766 23.5507 84.5684C23.4554 84.5166 23.3604 84.4642 23.2654 84.4118C23.043 84.2888 22.8216 84.1644 22.6015 84.0378C22.5189 83.9903 22.4368 83.942 22.3546 83.894C21.5817 83.443 20.8233 82.9698 20.0806 82.475C19.8646 82.3311 19.6499 82.1854 19.4366 82.0379C19.3397 81.9709 19.243 81.9035 19.1466 81.8358C19.0901 81.7961 19.0335 81.7567 18.9772 81.7167C18.9146 81.6723 18.8525 81.6272 18.7902 81.5825C18.707 81.5227 18.6237 81.463 18.5409 81.4027C18.4762 81.3556 18.412 81.3079 18.3476 81.2605C18.2675 81.2015 18.1875 81.1426 18.1079 81.0831C17.729 80.8002 17.3548 80.5114 16.9853 80.217C16.9467 80.1863 16.9079 80.1559 16.8694 80.1251C16.7664 80.0425 16.664 79.9593 16.5618 79.8758C16.5234 79.8444 16.485 79.813 16.4467 79.7815C16.3666 79.7157 16.2867 79.6497 16.207 79.5834C16.1494 79.5353 16.0919 79.4871 16.0344 79.4387C15.9497 79.3674 15.8653 79.2957 15.7812 79.2238C15.725 79.1758 15.6693 79.1274 15.6134 79.0792C15.5523 79.0265 15.4912 78.974 15.4304 78.921C15.3589 78.8586 15.2874 78.7961 15.2163 78.7332C15.1276 78.6549 15.0398 78.5757 14.9518 78.4967C14.9156 78.4642 14.8792 78.4319 14.8431 78.3992C14.7596 78.3238 14.676 78.2484 14.593 78.1723C14.5423 78.1258 14.4917 78.0792 14.4412 78.0325C14.3629 77.96 14.2849 77.8874 14.2071 77.8144C14.1431 77.7543 14.0798 77.6935 14.0162 77.633C13.8148 77.4418 13.6155 77.2486 13.4177 77.0537C13.3642 77.001 13.3104 76.9485 13.2571 76.8955C13.2061 76.8448 13.1552 76.7939 13.1045 76.7429C13.0304 76.6684 12.956 76.5942 12.8824 76.5192C12.8202 76.4559 12.7588 76.3919 12.697 76.3282C12.6267 76.2557 12.5567 76.183 12.4869 76.1101C12.4461 76.0675 12.4052 76.025 12.3646 75.9822C12.2988 75.913 12.2334 75.8434 12.1681 75.7737C12.0839 75.6839 11.9998 75.5941 11.9164 75.5036C11.8853 75.47 11.8546 75.4359 11.8237 75.4022C11.7495 75.3213 11.6759 75.2399 11.6024 75.1585C11.5474 75.0976 11.4924 75.0367 11.4378 74.9755C11.3735 74.9036 11.309 74.832 11.2452 74.7598C11.185 74.6916 11.1252 74.623 11.0654 74.5544C11.0096 74.4904 10.9539 74.4262 10.8984 74.3619C10.852 74.3079 10.8056 74.2538 10.7594 74.1997C10.6787 74.1051 10.5981 74.0105 10.5181 73.9152C10.4876 73.8789 10.4574 73.8422 10.427 73.8058C10.2305 73.5702 10.0363 73.3327 9.84455 73.093C9.81246 73.0529 9.78063 73.0126 9.74867 72.9724C9.6721 72.876 9.59594 72.7794 9.52015 72.6824C9.49142 72.6456 9.46248 72.609 9.43386 72.5721C9.3556 72.4713 9.27797 72.37 9.20055 72.2685C9.15581 72.2098 9.11158 72.1508 9.06712 72.0919C9.00613 72.0111 8.9454 71.9302 8.88494 71.849C8.84594 71.7966 8.80707 71.7441 8.76829 71.6916C8.70121 71.6007 8.63415 71.5098 8.56774 71.4183C8.51943 71.3518 8.47107 71.2853 8.42312 71.2186C8.37122 71.1463 8.31959 71.0738 8.26811 71.0012C8.21712 70.9293 8.16687 70.8569 8.1163 70.7847C8.06112 70.7059 8.00559 70.6274 7.95091 70.5482C7.89632 70.4692 7.84279 70.3895 7.78871 70.3101C7.74694 70.2488 7.70473 70.1878 7.66326 70.1263C7.6211 70.0638 7.57887 70.0013 7.53702 69.9386C7.26568 69.5318 7.00111 69.1201 6.74281 68.7041C6.7032 68.6403 6.66385 68.5763 6.62456 68.5123C6.37942 68.1131 6.13994 67.71 5.90705 67.3026C5.88929 67.2716 5.872 67.2403 5.85431 67.2092C5.75752 67.0389 5.6621 66.8678 5.56747 66.6962C5.53197 66.6318 5.4964 66.5674 5.4612 66.5028C5.09977 65.8397 4.75419 65.1666 4.42569 64.4837C4.27958 64.18 4.13607 63.8748 3.99663 63.5673C3.95256 63.4701 3.90978 63.3724 3.86639 63.2749C3.76173 63.0396 3.6587 62.8035 3.55797 62.5661C3.02262 61.3047 2.54338 60.0138 2.12296 58.6966C2.10171 58.63 2.07999 58.5635 2.05904 58.4968C2.02115 58.3761 1.98407 58.2552 1.94718 58.1341C1.93355 58.0893 1.91992 58.0446 1.90643 57.9998C1.82087 57.7158 1.7388 57.4304 1.65874 57.1441C1.63656 57.0648 1.61417 56.9855 1.59242 56.906C1.56259 56.797 1.53356 56.6877 1.50453 56.5784C1.48989 56.5233 1.47501 56.4682 1.46058 56.413C1.38546 56.1256 1.3128 55.8372 1.24325 55.5477C1.22531 55.4729 1.20809 55.398 1.19052 55.3232C1.13225 55.0749 1.07607 54.8259 1.02193 54.5761L63.8318 85.8795Z" fill="#319A96"/>
</svg>
